<svg xmlns="http://www.w3.org/2000/svg" viewBox="0 0 1920 416"><defs><style>.cls-1{fill:#e6e6e6;}.cls-2{font-size:170px;font-family:Sathu;}.cls-2,.cls-3{fill:#666;}.cls-4{fill:none;stroke:#999;stroke-miterlimit:10;stroke-width:4px;}.cls-5{font-size:100px;font-family:Zapfino;}.cls-6{font-size:14px;font-family:MyriadPro-Regular, Myriad Pro;}.cls-7{letter-spacing:0.01em;}.cls-8{letter-spacing:0em;}</style></defs><title>intro</title><g id="Layer_3" data-name="Layer 3"><rect class="cls-1" x="0.19" y="0.14" width="1920" height="416"/><text class="cls-2" transform="translate(393.76 272.97)">Birstro Babushka</text><circle class="cls-3" cx="195.69" cy="207.64" r="159.5"/><path class="cls-4" d="M103.19,147.14s-6.77-30.94,77.61-26.27a75.57,75.57,0,0,0,8.38,0c15.63-.9,71.87-2.14,71,26.28h0s5,27-28,35h0s36,12,30,38-29,42-29,42h0l-93,1h0s-46-10-47,31h102s45-16,38-32h0s12-26-27-46h0s28.05-25.95,6.63-51.42a43,43,0,0,0-31.58-15l-78.05-2.57Z"/><text class="cls-5" transform="translate(69.69 226.68)">B</text><text class="cls-6" transform="translate(157.09 256.18)">BABUSH<tspan class="cls-7" x="48.83" y="0">K</tspan><tspan class="cls-8" x="56.56" y="0">A</tspan></text></g></svg>
