<svg xmlns="http://www.w3.org/2000/svg" viewBox="0 0 1920 416"><defs><style>.cls-1{fill:#ccc;}.cls-2{opacity:0.8;font-size:120px;fill:#f15a24;font-family:Sathu;}.cls-3{fill:#666;}.cls-4{fill:none;stroke:#f15a24;stroke-miterlimit:10;stroke-width:4px;}.cls-5{font-size:100px;fill:#f7931e;font-family:Zapfino;}.cls-6{font-size:14px;font-family:MyriadPro-Regular, Myriad Pro;}.cls-7{letter-spacing:0.01em;}.cls-8{letter-spacing:0em;}</style></defs><title>intro2</title><g id="Layer_3" data-name="Layer 3"><rect class="cls-1" y="2" width="1920" height="416"/><text class="cls-2" transform="translate(569.03 249.66)">Birstro Babushka</text><circle class="cls-3" cx="384.97" cy="209.73" r="159.5"/><path class="cls-4" d="M292.47,149.23S285.7,118.29,370.08,123a73,73,0,0,0,8.37,0c15.64-.89,71.88-2.14,71,26.28h0s5,27-28,35h0s36,12,30,38-29,42-29,42h0l-93,1h0s-46-10-47,31h102s45-16,38-32h0s12-26-27-46h0s28-25.95,6.62-51.42a43,43,0,0,0-31.57-15l-78-2.57Z"/><text class="cls-5" transform="translate(258.96 228.77)">B</text><text class="cls-6" transform="translate(346.36 258.27)">BABUSH<tspan class="cls-7" x="48.83" y="0">K</tspan><tspan class="cls-8" x="56.56" y="0">A</tspan></text></g></svg>
