<svg xmlns="http://www.w3.org/2000/svg" viewBox="0 0 1273 372"><defs><style>.cls-1{opacity:0.8;}.cls-2{fill:#666;}.cls-3,.cls-8{fill:none;stroke-miterlimit:10;}.cls-3{stroke:#f15a24;stroke-width:4px;}.cls-4{font-size:100px;fill:#f7931e;font-family:Zapfino;}.cls-5{font-size:14px;font-family:MyriadPro-Regular, Myriad Pro;}.cls-6{letter-spacing:0.01em;}.cls-7{letter-spacing:0em;}.cls-8{stroke:gray;}</style></defs><title>intro6</title><g id="Layer_3" data-name="Layer 3"><g class="cls-1"><path class="cls-2" d="M412.16,143.11h29.28c16.08,0,24.71,8.52,24.71,20.64,0,9.95-6,16.43-12.95,18.35,6,1.68,15.95,7.56,15.95,20.76,0,16.8-12.6,24.24-27.23,24.24H412.16Zm27.12,36.11c14.51,0,20-5.4,20-15.12,0-8.27-5.76-15-17.51-15H418.52v30.11ZM418.52,221.1h23.64c11,0,20.28-5.52,20.28-17.88,0-10.68-6.84-18-23.76-18H418.52Z"/><path class="cls-2" d="M485.48,138.67h6v11.64h-6Zm0,28.43h6v60h-6Z"/><path class="cls-2" d="M510.56,210.54c2,7.8,7.56,12.48,17,12.48,10.68,0,15-4.92,15-11.64s-2.88-10.2-16.32-13.44c-15.48-3.72-19.32-8.4-19.32-16.32,0-8.28,6.24-16,19.8-16s20,8.27,21,16.79h-6c-1.08-5-5-11.28-15.24-11.28-10.44,0-13.44,5.16-13.44,10,0,5.52,2.88,8.28,14.76,11.16,16.92,4.08,21.12,9.6,21.12,18.6,0,10.92-8.88,17.64-21.48,17.64-13.68,0-21.36-7.2-23-18Z"/><path class="cls-2" d="M554.48,167.1h11.16V148.39h6V167.1h14.28v5.64H571.64v39c0,6.72,1.44,10.56,7.2,10.56a22.68,22.68,0,0,0,6.24-.72v5.28a21.07,21.07,0,0,1-7.44,1.08c-7.68,0-12-3.84-12-13.44V172.74H554.48Z"/><path class="cls-2" d="M597.08,183.42c0-10.08-.12-14.4-.12-16.32h5.88c.12,1.92.24,5.76.24,13.44,3.48-9,11.16-14.39,20.88-14.87v6.47c-12.48.84-20.88,9.48-20.88,23.76v31.2h-6Z"/><path class="cls-2" d="M683.59,197c0,16.68-9.24,31.56-27.12,31.56-16.19,0-26.27-13.32-26.27-31.44,0-17.16,9.48-31.43,26.87-31.43C673,165.67,683.59,178.14,683.59,197Zm-47,.12c0,14.28,7.68,25.8,20.41,25.8,12.95,0,20.27-10.68,20.27-25.8,0-14.16-7.2-25.8-20.52-25.8C643,171.3,636.55,182.7,636.55,197.1Z"/><path class="cls-2" d="M731.59,143.11h29.28c16.08,0,24.72,8.52,24.72,20.64,0,9.95-6,16.43-13,18.35,6,1.68,16,7.56,16,20.76,0,16.8-12.6,24.24-27.24,24.24H731.59Zm27.12,36.11c14.52,0,20-5.4,20-15.12,0-8.27-5.76-15-17.52-15H738v30.11ZM738,221.1h23.64c11,0,20.28-5.52,20.28-17.88,0-10.68-6.84-18-23.76-18H738Z"/><path class="cls-2" d="M846.07,215.7a68.59,68.59,0,0,0,.84,11.4h-5.76c-.48-1.44-.84-4.08-1.08-9.24-2,4.44-7.32,10.68-19.68,10.68-13.92,0-19.92-9-19.92-18,0-13.2,10.2-19.2,28.2-19.2h11.4v-6.12c0-6-1.8-14-15.48-14-12.12,0-13.92,6.36-15.24,11.28h-6c.72-6.6,4.8-16.79,21.36-16.79,13.68,0,21.36,5.75,21.36,19Zm-5.88-19.2H828.43c-13.32,0-21.6,3.48-21.6,13.8,0,7.56,5.4,12.72,13.8,12.72,17.16,0,19.56-11.4,19.56-24.36Z"/><path class="cls-2" d="M865.87,138.67h6v38.51c2.88-6,8.76-11.51,20.52-11.51,14.16,0,24.6,11.63,24.6,30.11,0,19-9.36,32.76-26.16,32.76-10.08,0-15.84-4.08-19-10.92,0,3.84-.12,7.8-.24,9.48h-5.88c.12-6.84.12-13.68.12-20.52Zm44.76,57.23c0-15-7.44-24.6-18.84-24.6-15,0-20.28,10.2-20.28,25.92,0,14.16,4.68,25.68,19.56,25.68C903.19,222.9,910.63,212.82,910.63,195.9Z"/><path class="cls-2" d="M976.75,209.58c0,5.88.12,15.24.12,17.52h-5.76a96.43,96.43,0,0,1-.36-10.44c-2.52,7.08-8.64,11.88-19.32,11.88-8.64,0-19.68-3.36-19.68-21.72V167.1h5.88v38.28c0,8.76,2.76,17.28,14.64,17.28,13.44,0,18.48-7.56,18.48-24.72V167.1h6Z"/><path class="cls-2" d="M995.71,210.54c2,7.8,7.56,12.48,17,12.48,10.68,0,15-4.92,15-11.64s-2.88-10.2-16.32-13.44c-15.48-3.72-19.32-8.4-19.32-16.32,0-8.28,6.24-16,19.8-16s20,8.27,21,16.79h-6c-1.08-5-5-11.28-15.24-11.28-10.44,0-13.44,5.16-13.44,10,0,5.52,2.88,8.28,14.76,11.16,16.92,4.08,21.12,9.6,21.12,18.6,0,10.92-8.88,17.64-21.48,17.64-13.68,0-21.36-7.2-23-18Z"/><path class="cls-2" d="M1054,138.67v38.51c3.36-6.24,9.24-11.51,19.8-11.51,8.52,0,20.28,4.31,20.28,23.27V227.1h-6v-37c0-11.88-5.4-18.6-15.36-18.6-11.88,0-18.72,7.32-18.72,22.08V227.1h-6V138.67Z"/><path class="cls-2" d="M1119.79,198.06c5.52-5.88,22.32-22.92,30.36-31h7.68L1134.07,191l26.76,36.12h-7.44l-23.64-32.28-10,9.6V227.1h-6V138.67h6Z"/><path class="cls-2" d="M1213,215.7a68.59,68.59,0,0,0,.84,11.4h-5.76c-.48-1.44-.84-4.08-1.08-9.24-2,4.44-7.32,10.68-19.68,10.68-13.92,0-19.92-9-19.92-18,0-13.2,10.2-19.2,28.2-19.2H1207v-6.12c0-6-1.8-14-15.48-14-12.12,0-13.92,6.36-15.24,11.28h-6c.72-6.6,4.8-16.79,21.36-16.79,13.68,0,21.36,5.75,21.36,19Zm-5.88-19.2h-11.76c-13.32,0-21.6,3.48-21.6,13.8,0,7.56,5.4,12.72,13.8,12.72,17.16,0,19.56-11.4,19.56-24.36Z"/></g><circle class="cls-2" cx="216.33" cy="193.29" r="159.5"/><path class="cls-3" d="M123.83,132.79s-6.77-30.94,77.61-26.27a75.57,75.57,0,0,0,8.38,0c15.64-.89,71.87-2.14,71,26.28h0s5,27-28,35h0s36,12,30,38-29,42-29,42h0l-93,1h0s-46-10-47,31h102s45-16,38-32h0s12-26-27-46h0s28.06-25.95,6.63-51.42a43,43,0,0,0-31.58-15l-78-2.57Z"/><text class="cls-4" transform="translate(90.33 212.33)">B</text><text class="cls-5" transform="translate(177.73 241.83)">BABUSH<tspan class="cls-6" x="48.83" y="0">K</tspan><tspan class="cls-7" x="56.56" y="0">A</tspan></text><line class="cls-8" x1="411.24" y1="247.44" x2="1278.24" y2="241.44"/></g></svg>
