<svg xmlns="http://www.w3.org/2000/svg" xmlns:xlink="http://www.w3.org/1999/xlink" viewBox="0 0 1920 416"><defs><style>.cls-1{fill:#e6e6e6;}.cls-2{fill:url(#linear-gradient);}.cls-3{fill:url(#linear-gradient-2);}.cls-4{fill:url(#linear-gradient-3);}.cls-5{fill:url(#linear-gradient-4);}.cls-6{fill:url(#linear-gradient-5);}.cls-7{fill:url(#linear-gradient-6);}.cls-8{fill:url(#linear-gradient-7);}.cls-9{fill:url(#linear-gradient-8);}.cls-10{fill:url(#linear-gradient-9);}.cls-11{fill:url(#linear-gradient-10);}.cls-12{fill:url(#linear-gradient-11);}.cls-13{fill:url(#linear-gradient-12);}.cls-14{fill:url(#linear-gradient-13);}.cls-15{fill:url(#linear-gradient-14);}.cls-16{fill:url(#linear-gradient-15);}.cls-17{fill:#666;}.cls-18{fill:none;stroke:#f15a24;stroke-miterlimit:10;stroke-width:4px;}.cls-19{font-size:100px;fill:#f7931e;font-family:Zapfino;}.cls-20{font-size:14px;font-family:MyriadPro-Regular, Myriad Pro;}.cls-21{letter-spacing:0.01em;}.cls-22{letter-spacing:0em;}</style><linearGradient id="linear-gradient" x1="405.37" y1="208.52" x2="492.38" y2="208.52" gradientUnits="userSpaceOnUse"><stop offset="0" stop-color="#fbb03b"/><stop offset="0.47" stop-color="#f7931e"/><stop offset="0.51" stop-color="#f7931e"/><stop offset="0.64" stop-color="#f15a24"/></linearGradient><linearGradient id="linear-gradient-2" x1="513.59" y1="208.52" x2="529.07" y2="208.52" xlink:href="#linear-gradient"/><linearGradient id="linear-gradient-3" x1="553.49" y1="225.27" x2="605.66" y2="225.27" xlink:href="#linear-gradient"/><linearGradient id="linear-gradient-4" x1="613.53" y1="226.54" x2="685.99" y2="226.54" xlink:href="#linear-gradient"/><linearGradient id="linear-gradient-5" x1="699.47" y1="216.86" x2="762.45" y2="216.86" xlink:href="#linear-gradient"/><linearGradient id="linear-gradient-6" x1="781.13" y1="225.27" x2="833.3" y2="225.27" xlink:href="#linear-gradient"/><linearGradient id="linear-gradient-7" x1="842.38" y1="226.54" x2="929.91" y2="226.54" xlink:href="#linear-gradient"/><linearGradient id="linear-gradient-8" x1="982.49" y1="208.52" x2="1069.49" y2="208.52" xlink:href="#linear-gradient"/><linearGradient id="linear-gradient-9" x1="1087.63" y1="226.47" x2="1164.23" y2="226.47" xlink:href="#linear-gradient"/><linearGradient id="linear-gradient-10" x1="1183.57" y1="207.19" x2="1268.57" y2="207.19" xlink:href="#linear-gradient"/><linearGradient id="linear-gradient-11" x1="1287.25" y1="227.8" x2="1363.18" y2="227.8" xlink:href="#linear-gradient"/><linearGradient id="linear-gradient-12" x1="1381.99" y1="226.54" x2="1454.45" y2="226.54" xlink:href="#linear-gradient"/><linearGradient id="linear-gradient-13" x1="1474.2" y1="205.92" x2="1550.26" y2="205.92" xlink:href="#linear-gradient"/><linearGradient id="linear-gradient-14" x1="1573.34" y1="205.92" x2="1650.07" y2="205.92" xlink:href="#linear-gradient"/><linearGradient id="linear-gradient-15" x1="1661.81" y1="226.47" x2="1738.4" y2="226.47" xlink:href="#linear-gradient"/></defs><title>intro1</title><g id="Layer_3" data-name="Layer 3"><rect class="cls-1" x="-0.34" y="0.07" width="1920" height="416"/><path class="cls-2" d="M463.42,205.12q15.21,3.74,22.08,12.61a31.79,31.79,0,0,1,6.88,20A33.93,33.93,0,0,1,487.64,255a34.88,34.88,0,0,1-13.48,13q-8.75,4.86-30.09,4.87h-38.7V144.14h34.3q23.34,0,31.36,3.33a25.11,25.11,0,0,1,12.07,9.88,27,27,0,0,1,4.07,14.54A34.49,34.49,0,0,1,482,189.57Q476.9,198.32,463.42,205.12Zm-41.23-5.07h16.14q12.42,0,18.62-3.27a25.92,25.92,0,0,0,13.54-22.22,16,16,0,0,0-5.74-12.34q-5.73-5.13-20.81-5.14H422.19Zm0,60.05h23.62q16.8,0,23-6.28A20.34,20.34,0,0,0,475,239a22,22,0,0,0-4-12.74,29.17,29.17,0,0,0-11.88-9.54Q451.28,213,434.6,213H422.19Z"/><path class="cls-3" d="M513.59,159.62V144.14h15.48v15.48Zm0,20.55h15.48v92.74H513.59Z"/><path class="cls-4" d="M569,272.91H553.49V180.17H569v16.41a39.77,39.77,0,0,1,8.41-11,33.51,33.51,0,0,1,9.61-5.94,28.2,28.2,0,0,1,10.41-2,23,23,0,0,1,8.27,1.34v16a27.31,27.31,0,0,0-11.61-2.54q-8.67,0-16.88,7.61T569,227.14Z"/><path class="cls-5" d="M613.53,248.35h15.35v.4a12.53,12.53,0,0,0,4.6,9.95q4.6,3.93,15.41,3.93,9.61,0,15.55-4.67T670.38,247q0-8.53-11.61-12.14l-8-2.41-5.2-1.6-10.68-3.33q-18.28-6.81-18.28-22.42,0-10.94,8.87-19.21t26.36-8.28q17.22,0,24.55,7.07t7.34,15.75v.27H668.11v-.27q0-4.66-4.67-7.34T651,190.44q-9.35,0-14.28,3.87a11.67,11.67,0,0,0-4.94,9.48,8.74,8.74,0,0,0,3.21,7.07q3.19,2.67,10.8,4.8l7.34,2.14,5.48,1.6q11.33,3.19,14.07,4.53a39.77,39.77,0,0,1,5.54,3.34,18.75,18.75,0,0,1,5.87,7.27,24.29,24.29,0,0,1,1.87,9.94,29.07,29.07,0,0,1-9.48,22Q667,275.44,649,275.44q-11.47,0-19-3.4a30,30,0,0,1-12-9.41,22.61,22.61,0,0,1-4.47-13.88Z"/><path class="cls-6" d="M762.45,259.83v12.94q-11.21,2.67-17.21,2.67A34.49,34.49,0,0,1,729.62,272a23.72,23.72,0,0,1-10.54-10.14q-3.6-6.67-3.6-21.08V193.11h-16V180.17h16V158.28H731v21.89h27.09v12.94H731v43.23q0,12.28,1.93,17a13.53,13.53,0,0,0,6,7,19.75,19.75,0,0,0,9.8,2.27Q753.25,262.63,762.45,259.83Z"/><path class="cls-7" d="M796.61,272.91H781.13V180.17h15.48v16.41a39.75,39.75,0,0,1,8.4-11,33.64,33.64,0,0,1,9.61-5.94,28.2,28.2,0,0,1,10.41-2A23,23,0,0,1,833.3,179v16a27.24,27.24,0,0,0-11.61-2.54q-8.67,0-16.88,7.61t-8.2,27.09Z"/><path class="cls-8" d="M886.14,275.44a43.13,43.13,0,0,1-30.95-12.27q-12.81-12.29-12.81-36.7,0-24.15,12.81-36.5a45,45,0,0,1,61.91,0q12.81,12.35,12.81,36.5,0,24.42-12.81,36.7A43.13,43.13,0,0,1,886.14,275.44Zm0-12.81a24,24,0,0,0,20.09-9.94q7.53-9.94,7.54-26.22t-7.54-26.09a25.26,25.26,0,0,0-40.17,0q-7.53,9.94-7.54,26.09t7.54,26.22A24,24,0,0,0,886.14,262.63Z"/><path class="cls-9" d="M1040.53,205.12q15.21,3.74,22.09,12.61a31.78,31.78,0,0,1,6.87,20,33.93,33.93,0,0,1-4.74,17.35,34.88,34.88,0,0,1-13.48,13q-8.73,4.86-30.09,4.87H982.49V144.14h34.29q23.35,0,31.36,3.33a25.11,25.11,0,0,1,12.07,9.88,26.92,26.92,0,0,1,4.07,14.54,34.58,34.58,0,0,1-5.13,17.68Q1054,198.32,1040.53,205.12Zm-41.23-5.07h16.14q12.42,0,18.62-3.27a25.92,25.92,0,0,0,13.54-22.22,16,16,0,0,0-5.73-12.34q-5.74-5.13-20.82-5.14H999.3Zm0,60.05h23.62q16.82,0,23-6.28a20.37,20.37,0,0,0,6.2-14.81,22,22,0,0,0-4-12.74,29.17,29.17,0,0,0-11.88-9.54q-7.87-3.73-24.55-3.74H999.3Z"/><path class="cls-10" d="M1148,272.91a43,43,0,0,1-2.4-12.81q-10.15,10-17.29,12.67a39.28,39.28,0,0,1-13.81,2.67,28.25,28.25,0,0,1-18.88-6.74q-7.93-6.74-7.94-18.61,0-13.49,11.14-20.75t38.5-12.61l8.28-1.6V204.72q0-8.53-5.74-12a26.12,26.12,0,0,0-13.75-3.47q-9.6,0-15,4.2t-5.4,9.95v1.33h-16.82v-1.33q0-6.15,5.21-12.68a32,32,0,0,1,13.81-9.88,51.55,51.55,0,0,1,18.75-3.33,50.74,50.74,0,0,1,18.41,3.2q8.28,3.21,12.14,8.54t3.87,20v36q0,6,.27,12.48a61.31,61.31,0,0,0,2.94,15.15Zm-2.4-46.84-4.68,1.2q-23.47,5.74-30,10.88t-6.54,12.21A12.57,12.57,0,0,0,1112,262.1a17.94,17.94,0,0,0,7.53,1.73,24.75,24.75,0,0,0,12.81-3.73,26.22,26.22,0,0,0,9.75-10.08,30.24,30.24,0,0,0,3.47-14.74Z"/><path class="cls-11" d="M1199.05,272.91h-15.48c.27-3,.51-6.74.74-11.15s.37-8,.46-10.74.14-4.58.14-5.47V138.93h15.48v57.38q5.05-7.86,9.47-11.47a31.12,31.12,0,0,1,9.67-5.41,34.29,34.29,0,0,1,11.15-1.8,34.75,34.75,0,0,1,19.34,5.74q8.82,5.74,13.68,17.21a65.32,65.32,0,0,1,4.87,25.76q0,21.21-10.21,35.16t-28.48,13.94a36.26,36.26,0,0,1-11.21-1.67,27.88,27.88,0,0,1-9.34-5.07q-4.14-3.4-8.94-11.94l-.54,6.67C1199.67,267.17,1199.41,270.33,1199.05,272.91Zm1.34-46.31q0,15.75,6.8,25.89a21.71,21.71,0,0,0,19.08,10.14q11.2,0,18.68-9t7.48-26.75q0-20.82-7.61-29a24,24,0,0,0-18.15-8.14,23.63,23.63,0,0,0-13.74,4.47q-6.4,4.48-9.48,13.22A57.51,57.51,0,0,0,1200.39,226.6Z"/><path class="cls-12" d="M1347.83,180.17h15.35v92.74h-15.35V256.76a46.49,46.49,0,0,1-9.47,11.21,35.56,35.56,0,0,1-9.61,5.6,29.81,29.81,0,0,1-10.67,1.87q-12.94,0-21.89-7.27T1287.25,239V180.17h15.48v52.3q0,20.29,5.41,24.56a20.7,20.7,0,0,0,13.27,4.27,23.2,23.2,0,0,0,13-4,28.38,28.38,0,0,0,9.74-11.27q3.67-7.28,3.67-20.22Z"/><path class="cls-13" d="M1382,248.35h15.35v.4a12.53,12.53,0,0,0,4.6,9.95q4.61,3.93,15.41,3.93,9.62,0,15.55-4.67c3.95-3.11,5.94-6.76,5.94-10.94q0-8.53-11.61-12.14l-8-2.41-5.2-1.6-10.68-3.33q-18.28-6.81-18.28-22.42,0-10.94,8.87-19.21t26.36-8.28q17.2,0,24.55,7.07t7.34,15.75v.27h-15.61v-.27q0-4.66-4.67-7.34t-12.41-2.67q-9.35,0-14.28,3.87a11.67,11.67,0,0,0-4.94,9.48,8.76,8.76,0,0,0,3.2,7.07q3.21,2.67,10.81,4.8l7.34,2.14,5.47,1.6q11.34,3.19,14.08,4.53a39.77,39.77,0,0,1,5.54,3.34,18.75,18.75,0,0,1,5.87,7.27,24.45,24.45,0,0,1,1.87,9.94,29.07,29.07,0,0,1-9.48,22q-9.46,8.94-27.48,8.94-11.49,0-19-3.4a29.93,29.93,0,0,1-12-9.41,22.61,22.61,0,0,1-4.47-13.88Z"/><path class="cls-14" d="M1489.68,272.91H1474.2v-134h15.48v57.25a48.24,48.24,0,0,1,9.54-11.14,35.07,35.07,0,0,1,9.6-5.54,31.8,31.8,0,0,1,11.15-1.87,33.71,33.71,0,0,1,15.67,3.54,25.46,25.46,0,0,1,10.75,10.47q3.87,6.95,3.87,22.29v59h-15.48V220.47q0-12.42-1.67-17.62a14.63,14.63,0,0,0-6.34-8.14,19.45,19.45,0,0,0-10.54-2.93,23.28,23.28,0,0,0-12.94,4,29,29,0,0,0-9.88,11.14q-3.73,7.14-3.73,20.35Z"/><path class="cls-15" d="M1589.48,272.91h-16.14v-134h16.14v85.41l41.24-44.17h17.74l-40.16,43.1,41.77,49.64h-19.35l-41.24-48.57Z"/><path class="cls-16" d="M1722.12,272.91a43,43,0,0,1-2.4-12.81q-10.14,10-17.28,12.67a39.36,39.36,0,0,1-13.81,2.67,28.23,28.23,0,0,1-18.88-6.74q-7.95-6.74-7.94-18.61,0-13.49,11.14-20.75t38.5-12.61l8.27-1.6V204.72q0-8.53-5.74-12a26.11,26.11,0,0,0-13.74-3.47q-9.62,0-15,4.2t-5.4,9.95v1.33H1663v-1.33q0-6.15,5.2-12.68a32,32,0,0,1,13.81-9.88,51.55,51.55,0,0,1,18.75-3.33,50.7,50.7,0,0,1,18.41,3.2q8.28,3.21,12.15,8.54t3.87,20v36q0,6,.26,12.48a61.31,61.31,0,0,0,2.94,15.15Zm-2.4-46.84-4.67,1.2q-23.49,5.74-30,10.88t-6.53,12.21a12.54,12.54,0,0,0,7.67,11.74,18,18,0,0,0,7.54,1.73,24.75,24.75,0,0,0,12.81-3.73,26.19,26.19,0,0,0,9.74-10.08,30.24,30.24,0,0,0,3.47-14.74Z"/><circle class="cls-17" cx="195.16" cy="207.57" r="159.5"/><path class="cls-18" d="M102.66,147.07s-6.76-30.93,77.62-26.27a73,73,0,0,0,8.37,0c15.64-.89,71.87-2.13,71,26.28h0s5,27-28,35h0s36,12,30,38-29,42-29,42h0l-93,1h0s-46-10-47,31h102s45-16,38-32h0s12-26-27-46h0s28.06-25.95,6.63-51.42a43,43,0,0,0-31.57-15l-78.06-2.58Z"/><text class="cls-19" transform="translate(69.16 226.61)">B</text><text class="cls-20" transform="translate(156.56 256.11)">BABUSH<tspan class="cls-21" x="48.83" y="0">K</tspan><tspan class="cls-22" x="56.56" y="0">A</tspan></text></g></svg>
