<svg id="Layer_1" data-name="Layer 1" xmlns="http://www.w3.org/2000/svg" viewBox="0 0 1920 1080"><defs><style>.cls-1{fill:#ccc;}.cls-2{font-size:170px;font-family:MyriadPro-Regular, Myriad Pro;}.cls-2,.cls-5{fill:#666;}.cls-3{letter-spacing:-0.01em;}.cls-4{letter-spacing:0.01em;}.cls-6{fill:none;stroke:#b3b3b3;stroke-miterlimit:10;}</style></defs><title>Artboard 1</title><rect class="cls-1" x="0.5" y="0.5" width="1919" height="415"/><path d="M1919,1V415H1V1H1919m1-1H0V416H1920V0Z"/><text class="cls-2" transform="translate(393.57 259.57)">Birst<tspan class="cls-3" x="311.1" y="0">r</tspan><tspan x="364.99" y="0">o BABUSH</tspan><tspan class="cls-4" x="1087.31" y="0">K</tspan><tspan x="1181.15" y="0">A</tspan></text><circle class="cls-5" cx="195.5" cy="207.5" r="159.5"/><path class="cls-6" d="M122.5,156v77a36.44,36.44,0,0,0,41.17,36.14c21.83-2.87,44.78-11.28,47.83-33.65,6-44-56-44-56-44s65,3,56-36c-4-17.45-22.27-27.9-41.21-34.11A36.44,36.44,0,0,0,122.5,156Z"/></svg>